<?xml version="1.0" standalone="no"?>
<!DOCTYPE svg PUBLIC "-//W3C//DTD SVG 20010904//EN"
 "http://www.w3.org/TR/2001/REC-SVG-20010904/DTD/svg10.dtd">
<svg version="1.0" xmlns="http://www.w3.org/2000/svg"
 width="601.000000pt" height="601.000000pt" viewBox="0 0 601.000000 601.000000"
 preserveAspectRatio="xMidYMid meet">
<metadata>
Created by potrace 1.16, written by Peter Selinger 2001-2019
</metadata>
<g transform="translate(0.000000,601.000000) scale(0.100000,-0.100000)"
fill="#000000" stroke="none">
<path d="M963 3875 c-131 -35 -246 -99 -341 -188 -66 -62 -142 -162 -142 -187
0 -12 50 -46 162 -110 l162 -94 15 25 c55 84 149 155 239 178 34 10 42 16 41
34 -2 50 -65 351 -74 353 -5 1 -33 -4 -62 -11z"/>
<path d="M1128 3794 c-16 -3 -28 -11 -27 -17 0 -7 13 -91 27 -187 l27 -175 90
-5 c95 -6 195 -41 231 -81 9 -11 23 -19 29 -19 7 0 68 64 136 142 l123 141
-42 38 c-56 49 -180 113 -272 139 -74 21 -261 34 -322 24z"/>
<path d="M4107 3540 c-32 -25 -51 -80 -42 -120 31 -142 235 -122 235 23 0 77
-40 116 -116 117 -37 0 -59 -6 -77 -20z"/>
<path d="M342 3487 c-20 -24 -62 -141 -77 -213 -18 -85 -20 -230 -4 -306 18
-89 40 -148 55 -148 8 0 88 28 180 63 l165 62 -5 30 c-3 17 -11 53 -16 80 -13
60 -7 119 22 202 12 35 20 64 17 67 -5 5 -231 127 -286 154 -32 17 -43 19 -51
9z"/>
<path d="M2270 3040 l0 -400 230 0 230 0 0 95 0 95 -125 0 -125 0 0 305 0 305
-105 0 -105 0 0 -400z"/>
<path d="M3540 3040 l0 -400 235 0 235 0 0 95 0 95 -125 0 -125 0 0 305 0 305
-110 0 -110 0 0 -400z"/>
<path d="M2969 3285 c-59 -19 -143 -93 -174 -155 -73 -144 -43 -340 67 -434
90 -77 247 -89 340 -24 34 24 38 23 38 -7 l0 -25 100 0 100 0 0 325 0 325
-100 0 -100 0 0 -25 0 -26 -46 27 c-56 33 -155 41 -225 19z m209 -195 c75 -46
90 -158 30 -225 -92 -105 -248 -42 -248 100 0 55 43 121 90 138 34 12 96 6
128 -13z"/>
<path d="M4560 3291 c-177 -54 -260 -293 -166 -478 47 -95 127 -143 234 -144
52 -1 76 5 123 28 l59 30 0 -29 c0 -82 -139 -129 -200 -68 -18 18 -34 20 -130
20 -98 0 -110 -2 -110 -17 1 -36 39 -100 80 -136 62 -52 127 -72 235 -71 118
1 185 26 248 93 73 78 77 103 77 463 l0 308 -95 0 -95 0 0 -30 0 -29 -36 24
c-61 41 -156 56 -224 36z m162 -171 c11 0 35 -15 53 -33 61 -61 56 -158 -11
-217 -29 -25 -43 -30 -85 -30 -44 0 -55 4 -84 33 -55 55 -59 147 -9 207 25 30
77 52 102 44 8 -2 23 -4 34 -4z"/>
<path d="M5302 3285 c-218 -68 -294 -388 -136 -564 84 -94 226 -119 340 -61
32 16 60 30 62 30 1 0 2 -11 2 -25 l0 -25 100 0 100 0 0 325 0 325 -100 0
-100 0 0 -25 c0 -29 -7 -31 -31 -9 -46 41 -155 55 -237 29z m194 -191 c95 -45
103 -189 13 -256 -89 -67 -219 5 -219 121 0 115 104 183 206 135z"/>
<path d="M1002 3275 c-126 -39 -202 -148 -202 -287 0 -171 120 -291 290 -292
97 -1 163 28 224 95 109 121 103 294 -13 409 -84 83 -189 110 -299 75z m-7
-44 c-3 -6 14 -11 37 -13 42 -3 43 -4 55 -48 l11 -45 1 35 c1 46 16 60 64 60
26 0 36 4 31 11 -10 17 73 -31 93 -53 9 -10 11 -18 5 -18 -8 0 -9 -7 -2 -26
18 -46 12 -64 -26 -80 -45 -19 -41 -26 9 -14 37 8 39 7 55 -28 9 -21 21 -40
26 -44 5 -3 4 -25 -4 -52 -11 -39 -19 -48 -62 -71 l-51 -26 -34 33 -34 33 23
-43 23 -43 -32 -29 c-17 -15 -29 -30 -26 -33 2 -3 -10 -8 -27 -12 -32 -7 -106
2 -97 12 3 2 -9 17 -26 33 l-32 28 19 39 18 38 -30 -28 c-24 -23 -33 -26 -54
-18 -15 5 -29 15 -33 21 -4 6 -13 9 -20 6 -23 -8 -60 106 -37 116 4 2 15 20
24 40 10 21 23 36 30 34 7 -3 27 -7 43 -10 28 -6 28 -5 -8 14 -37 21 -38 22
-34 70 5 56 16 74 66 100 42 22 44 23 36 11z"/>
<path d="M1033 3074 l-62 -44 23 -68 23 -67 75 -3 76 -3 21 63 c12 34 21 67
21 73 0 6 -26 29 -58 52 l-58 41 -61 -44z"/>
<path d="M4080 2965 l0 -325 100 0 100 0 0 325 0 325 -100 0 -100 0 0 -325z"/>
</g>
</svg>
